<svg xmlns="http://www.w3.org/2000/svg" width="1200" height="630" viewBox="0 0 1200 630" role="img" aria-labelledby="title desc">
  <title id="title">24 Climatizaciones</title>
  <desc id="desc">Imagen de vista previa social de 24 Climatizaciones con una casa a 24 grados y climatización frío calor.</desc>
  <defs>
    <linearGradient id="bg" x1="88" y1="52" x2="1112" y2="578" gradientUnits="userSpaceOnUse">
      <stop stop-color="#eef8ff"/>
      <stop offset=".42" stop-color="#ffffff"/>
      <stop offset="1" stop-color="#fff1e5"/>
    </linearGradient>
    <linearGradient id="logoBg" x1="248" y1="108" x2="515" y2="386" gradientUnits="userSpaceOnUse">
      <stop stop-color="#1cc8ff"/>
      <stop offset=".34" stop-color="#1677ff"/>
      <stop offset=".58" stop-color="#071226"/>
      <stop offset="1" stop-color="#ff7a1a"/>
    </linearGradient>
    <linearGradient id="house" x1="333" y1="185" x2="430" y2="340" gradientUnits="userSpaceOnUse">
      <stop stop-color="#ffffff"/>
      <stop offset="1" stop-color="#dff4ff"/>
    </linearGradient>
    <radialGradient id="coldGlow" cx="0" cy="0" r="1" gradientUnits="userSpaceOnUse" gradientTransform="translate(196 104) rotate(45) scale(410)">
      <stop stop-color="#1cc8ff" stop-opacity=".34"/>
      <stop offset="1" stop-color="#1cc8ff" stop-opacity="0"/>
    </radialGradient>
    <radialGradient id="warmGlow" cx="0" cy="0" r="1" gradientUnits="userSpaceOnUse" gradientTransform="translate(1022 540) rotate(135) scale(410)">
      <stop stop-color="#ff7a1a" stop-opacity=".27"/>
      <stop offset="1" stop-color="#ff7a1a" stop-opacity="0"/>
    </radialGradient>
    <filter id="shadow" x="-20%" y="-20%" width="140%" height="160%" color-interpolation-filters="sRGB">
      <feDropShadow dx="0" dy="28" stdDeviation="28" flood-color="#071226" flood-opacity=".22"/>
    </filter>
  </defs>

  <rect width="1200" height="630" fill="url(#bg)"/>
  <circle cx="184" cy="112" r="380" fill="url(#coldGlow)"/>
  <circle cx="1028" cy="542" r="410" fill="url(#warmGlow)"/>
  <path d="M0 580C194 512 327 604 508 548c197-61 318-212 532-157 84 22 132 63 160 92v147H0Z" fill="#071226" opacity=".045"/>

  <g transform="translate(110 92)" filter="url(#shadow)">
    <rect width="338" height="338" rx="88" fill="url(#logoBg)"/>
    <rect x="24" y="24" width="290" height="290" rx="74" fill="none" stroke="#ffffff" stroke-opacity=".24" stroke-width="8"/>
    <circle cx="88" cy="92" r="106" fill="#1cc8ff" opacity=".20"/>
    <circle cx="272" cy="274" r="116" fill="#ffbd59" opacity=".24"/>
    <g opacity=".94" fill="none" stroke-linecap="round" stroke-linejoin="round">
      <g transform="translate(72 94)" stroke="#eafcff" stroke-width="10">
        <path d="M0-31v62"/>
        <path d="M-27-16 27 16"/>
        <path d="M27-16-27 16"/>
        <circle r="7" fill="#eafcff" stroke="none"/>
      </g>
      <path d="M275 98c-9 18 3 28 12 39 11 15 7 36-13 46-29 15-65-7-62-41 1-15 10-27 20-36-2 20 18 29 28 15 5-8 2-15 15-23z" fill="#ffd28d" stroke="#fff6e8" stroke-width="6"/>
    </g>
    <path d="M169 84 258 166h-26v112H106V166H80l89-82z" fill="url(#house)"/>
    <path d="M106 166 169 84l63 82v112H106Z" fill="none" stroke="#ffffff" stroke-width="9" stroke-linejoin="round" stroke-opacity=".96"/>
    <text x="166" y="224" text-anchor="middle" font-family="Inter, Arial, sans-serif" font-size="78" font-weight="900" fill="#071226" letter-spacing="-7">24</text>
    <text x="219" y="183" text-anchor="middle" font-family="Inter, Arial, sans-serif" font-size="34" font-weight="900" fill="#071226">°</text>
    <path d="M135 250h68" stroke="#1677ff" stroke-width="8" stroke-linecap="round"/>
    <path d="M135 269h68" stroke="#ff7a1a" stroke-width="8" stroke-linecap="round"/>
  </g>

  <g transform="translate(504 118)">
    <text x="0" y="46" font-family="Inter, Arial, sans-serif" font-size="62" font-weight="900" fill="#071226" letter-spacing="-2">24 Climatizaciones</text>
    <text x="0" y="99" font-family="Inter, Arial, sans-serif" font-size="28" font-weight="800" fill="#0b5bd7" letter-spacing="1.6">CASA TEMPLADA TODO EL AÑO</text>
    <text x="0" y="167" font-family="Inter, Arial, sans-serif" font-size="38" font-weight="850" fill="#10203d">Instalación, reparación</text>
    <text x="0" y="213" font-family="Inter, Arial, sans-serif" font-size="38" font-weight="850" fill="#10203d">y mantenimiento</text>
    <text x="0" y="270" font-family="Inter, Arial, sans-serif" font-size="29" font-weight="700" fill="#64748b">Presupuesto por WhatsApp con</text>
    <text x="0" y="306" font-family="Inter, Arial, sans-serif" font-size="29" font-weight="700" fill="#64748b">diagnóstico guiado y ubicación precisa.</text>
    <g transform="translate(0 352)">
      <rect width="252" height="54" rx="27" fill="#25d66f"/>
      <text x="126" y="36" text-anchor="middle" font-family="Inter, Arial, sans-serif" font-size="22" font-weight="900" fill="#052711">Abrir solicitud</text>
      <rect x="276" width="236" height="54" rx="27" fill="#ffffff" stroke="#dfe8f4"/>
      <text x="394" y="36" text-anchor="middle" font-family="Inter, Arial, sans-serif" font-size="22" font-weight="900" fill="#10203d">WhatsApp rápido</text>
    </g>
  </g>

  <text x="110" y="550" font-family="Inter, Arial, sans-serif" font-size="26" font-weight="800" fill="#10203d">24-climatizaciones.vercel.app</text>
  <text x="1090" y="550" text-anchor="end" font-family="Inter, Arial, sans-serif" font-size="22" font-weight="800" fill="#64748b">Córdoba</text>
</svg>
